<mxfile host="app.diagrams.net" modified="2023-07-07T18:25:36.849Z" agent="Mozilla/5.0 (Windows NT 10.0; Win64; x64) AppleWebKit/537.36 (KHTML, like Gecko) Chrome/114.0.0.0 Safari/537.36" etag="zIhnN0AGa_-yvGxyy2vI" version="21.6.1" type="github">
  <diagram name="PÃ¡gina-1" id="1Rz9W2KNJqUkcTFK6xZG">
    <mxGraphModel dx="1500" dy="827" grid="1" gridSize="10" guides="1" tooltips="1" connect="1" arrows="1" fold="1" page="1" pageScale="1" pageWidth="827" pageHeight="1169" math="0" shadow="0">
      <root>
        <mxCell id="0" />
        <mxCell id="1" parent="0" />
        <mxCell id="sQ7NP-9YRCdX116FE9q4-1" value="AWS Cloud" style="points=[[0,0],[0.25,0],[0.5,0],[0.75,0],[1,0],[1,0.25],[1,0.5],[1,0.75],[1,1],[0.75,1],[0.5,1],[0.25,1],[0,1],[0,0.75],[0,0.5],[0,0.25]];outlineConnect=0;gradientColor=none;html=1;whiteSpace=wrap;fontSize=12;fontStyle=0;container=1;pointerEvents=0;collapsible=0;recursiveResize=0;shape=mxgraph.aws4.group;grIcon=mxgraph.aws4.group_aws_cloud_alt;strokeColor=#232F3E;fillColor=none;verticalAlign=top;align=left;spacingLeft=30;fontColor=#232F3E;dashed=0;" vertex="1" parent="1">
          <mxGeometry x="20" y="20" width="790" height="1060" as="geometry" />
        </mxCell>
        <mxCell id="sQ7NP-9YRCdX116FE9q4-57" value="Users" style="sketch=0;outlineConnect=0;fontColor=#232F3E;gradientColor=none;strokeColor=#232F3E;fillColor=#ffffff;dashed=0;verticalLabelPosition=bottom;verticalAlign=top;align=center;html=1;fontSize=12;fontStyle=0;aspect=fixed;shape=mxgraph.aws4.resourceIcon;resIcon=mxgraph.aws4.users;" vertex="1" parent="sQ7NP-9YRCdX116FE9q4-1">
          <mxGeometry x="110" y="10" width="50" height="50" as="geometry" />
        </mxCell>
        <mxCell id="sQ7NP-9YRCdX116FE9q4-62" value="Amazon Route 53" style="sketch=0;outlineConnect=0;fontColor=#232F3E;gradientColor=none;strokeColor=#ffffff;fillColor=#232F3E;dashed=0;verticalLabelPosition=middle;verticalAlign=bottom;align=center;html=1;whiteSpace=wrap;fontSize=10;fontStyle=1;spacing=3;shape=mxgraph.aws4.productIcon;prIcon=mxgraph.aws4.route_53;" vertex="1" parent="sQ7NP-9YRCdX116FE9q4-1">
          <mxGeometry x="240" y="10" width="50" height="81" as="geometry" />
        </mxCell>
        <mxCell id="sQ7NP-9YRCdX116FE9q4-65" value="" style="edgeStyle=orthogonalEdgeStyle;html=1;endArrow=block;elbow=vertical;startArrow=block;startFill=1;endFill=1;strokeColor=#545B64;rounded=0;" edge="1" parent="sQ7NP-9YRCdX116FE9q4-1">
          <mxGeometry width="100" relative="1" as="geometry">
            <mxPoint x="160" y="40" as="sourcePoint" />
            <mxPoint x="240" y="40" as="targetPoint" />
          </mxGeometry>
        </mxCell>
        <mxCell id="sQ7NP-9YRCdX116FE9q4-66" value="" style="outlineConnect=0;dashed=0;verticalLabelPosition=bottom;verticalAlign=top;align=center;html=1;shape=mxgraph.aws3.cloudfront;fillColor=#F58536;gradientColor=none;" vertex="1" parent="sQ7NP-9YRCdX116FE9q4-1">
          <mxGeometry x="394" y="10" width="51" height="62" as="geometry" />
        </mxCell>
        <mxCell id="sQ7NP-9YRCdX116FE9q4-67" value="" style="edgeStyle=orthogonalEdgeStyle;html=1;endArrow=block;elbow=vertical;startArrow=block;startFill=1;endFill=1;strokeColor=#545B64;rounded=0;entryX=0;entryY=0.5;entryDx=0;entryDy=0;entryPerimeter=0;" edge="1" parent="sQ7NP-9YRCdX116FE9q4-1" target="sQ7NP-9YRCdX116FE9q4-66">
          <mxGeometry width="100" relative="1" as="geometry">
            <mxPoint x="290" y="40.64" as="sourcePoint" />
            <mxPoint x="370" y="40.64" as="targetPoint" />
          </mxGeometry>
        </mxCell>
        <mxCell id="sQ7NP-9YRCdX116FE9q4-2" value="Region" style="points=[[0,0],[0.25,0],[0.5,0],[0.75,0],[1,0],[1,0.25],[1,0.5],[1,0.75],[1,1],[0.75,1],[0.5,1],[0.25,1],[0,1],[0,0.75],[0,0.5],[0,0.25]];outlineConnect=0;gradientColor=none;html=1;whiteSpace=wrap;fontSize=12;fontStyle=0;container=1;pointerEvents=0;collapsible=0;recursiveResize=0;shape=mxgraph.aws4.group;grIcon=mxgraph.aws4.group_region;strokeColor=#147EBA;fillColor=none;verticalAlign=top;align=left;spacingLeft=30;fontColor=#147EBA;dashed=1;" vertex="1" parent="1">
          <mxGeometry x="50" y="100" width="730" height="930" as="geometry" />
        </mxCell>
        <mxCell id="sQ7NP-9YRCdX116FE9q4-31" value="" style="sketch=0;outlineConnect=0;fontColor=#232F3E;gradientColor=none;fillColor=#3F8624;strokeColor=none;dashed=0;verticalLabelPosition=bottom;verticalAlign=top;align=center;html=1;fontSize=12;fontStyle=0;aspect=fixed;pointerEvents=1;shape=mxgraph.aws4.bucket_with_objects;" vertex="1" parent="sQ7NP-9YRCdX116FE9q4-2">
          <mxGeometry x="150.00000000000003" y="12" width="55.77" height="58" as="geometry" />
        </mxCell>
        <mxCell id="sQ7NP-9YRCdX116FE9q4-69" value="" style="edgeStyle=orthogonalEdgeStyle;html=1;endArrow=block;elbow=vertical;startArrow=block;startFill=1;endFill=1;strokeColor=#545B64;rounded=0;entryX=0;entryY=0.79;entryDx=0;entryDy=0;entryPerimeter=0;" edge="1" parent="sQ7NP-9YRCdX116FE9q4-2" target="sQ7NP-9YRCdX116FE9q4-66">
          <mxGeometry width="100" relative="1" as="geometry">
            <mxPoint x="230" y="40.639999999999986" as="sourcePoint" />
            <mxPoint x="330" y="40.639999999999986" as="targetPoint" />
          </mxGeometry>
        </mxCell>
        <mxCell id="sQ7NP-9YRCdX116FE9q4-3" value="VPC" style="points=[[0,0],[0.25,0],[0.5,0],[0.75,0],[1,0],[1,0.25],[1,0.5],[1,0.75],[1,1],[0.75,1],[0.5,1],[0.25,1],[0,1],[0,0.75],[0,0.5],[0,0.25]];outlineConnect=0;gradientColor=none;html=1;whiteSpace=wrap;fontSize=12;fontStyle=0;container=1;pointerEvents=0;collapsible=0;recursiveResize=0;shape=mxgraph.aws4.group;grIcon=mxgraph.aws4.group_vpc;strokeColor=#248814;fillColor=none;verticalAlign=top;align=left;spacingLeft=30;fontColor=#AAB7B8;dashed=0;" vertex="1" parent="1">
          <mxGeometry x="80" y="210" width="670" height="770" as="geometry" />
        </mxCell>
        <mxCell id="sQ7NP-9YRCdX116FE9q4-23" value="AZ A" style="fillColor=none;strokeColor=#147EBA;dashed=1;verticalAlign=top;fontStyle=0;fontColor=#147EBA;whiteSpace=wrap;html=1;" vertex="1" parent="sQ7NP-9YRCdX116FE9q4-3">
          <mxGeometry x="70" y="-30" width="250" height="810" as="geometry" />
        </mxCell>
        <mxCell id="sQ7NP-9YRCdX116FE9q4-5" value="AZ B" style="fillColor=none;strokeColor=#147EBA;dashed=1;verticalAlign=top;fontStyle=0;fontColor=#147EBA;whiteSpace=wrap;html=1;" vertex="1" parent="sQ7NP-9YRCdX116FE9q4-3">
          <mxGeometry x="400" y="-30" width="250" height="810" as="geometry" />
        </mxCell>
        <mxCell id="sQ7NP-9YRCdX116FE9q4-12" value="App subnet" style="points=[[0,0],[0.25,0],[0.5,0],[0.75,0],[1,0],[1,0.25],[1,0.5],[1,0.75],[1,1],[0.75,1],[0.5,1],[0.25,1],[0,1],[0,0.75],[0,0.5],[0,0.25]];outlineConnect=0;gradientColor=none;html=1;whiteSpace=wrap;fontSize=12;fontStyle=0;container=1;pointerEvents=0;collapsible=0;recursiveResize=0;shape=mxgraph.aws4.group;grIcon=mxgraph.aws4.group_security_group;grStroke=0;strokeColor=#147EBA;fillColor=#E6F2F8;verticalAlign=top;align=left;spacingLeft=30;fontColor=#147EBA;dashed=0;" vertex="1" parent="sQ7NP-9YRCdX116FE9q4-3">
          <mxGeometry x="410" y="260" width="230" height="220" as="geometry" />
        </mxCell>
        <mxCell id="sQ7NP-9YRCdX116FE9q4-29" value="" style="sketch=0;points=[[0,0,0],[0.25,0,0],[0.5,0,0],[0.75,0,0],[1,0,0],[0,1,0],[0.25,1,0],[0.5,1,0],[0.75,1,0],[1,1,0],[0,0.25,0],[0,0.5,0],[0,0.75,0],[1,0.25,0],[1,0.5,0],[1,0.75,0]];outlineConnect=0;fontColor=#232F3E;gradientColor=#F78E04;gradientDirection=north;fillColor=#D05C17;strokeColor=#ffffff;dashed=0;verticalLabelPosition=bottom;verticalAlign=top;align=center;html=1;fontSize=12;fontStyle=0;aspect=fixed;shape=mxgraph.aws4.resourceIcon;resIcon=mxgraph.aws4.ec2;" vertex="1" parent="sQ7NP-9YRCdX116FE9q4-12">
          <mxGeometry x="86" y="80" width="58" height="58" as="geometry" />
        </mxCell>
        <mxCell id="sQ7NP-9YRCdX116FE9q4-15" value="Private subnet" style="points=[[0,0],[0.25,0],[0.5,0],[0.75,0],[1,0],[1,0.25],[1,0.5],[1,0.75],[1,1],[0.75,1],[0.5,1],[0.25,1],[0,1],[0,0.75],[0,0.5],[0,0.25]];outlineConnect=0;gradientColor=none;html=1;whiteSpace=wrap;fontSize=12;fontStyle=0;container=1;pointerEvents=0;collapsible=0;recursiveResize=0;shape=mxgraph.aws4.group;grIcon=mxgraph.aws4.group_security_group;grStroke=0;strokeColor=#147EBA;fillColor=#E6F2F8;verticalAlign=top;align=left;spacingLeft=30;fontColor=#147EBA;dashed=0;" vertex="1" parent="sQ7NP-9YRCdX116FE9q4-3">
          <mxGeometry x="410" y="494" width="230" height="230" as="geometry" />
        </mxCell>
        <mxCell id="sQ7NP-9YRCdX116FE9q4-34" value="" style="sketch=0;points=[[0,0,0],[0.25,0,0],[0.5,0,0],[0.75,0,0],[1,0,0],[0,1,0],[0.25,1,0],[0.5,1,0],[0.75,1,0],[1,1,0],[0,0.25,0],[0,0.5,0],[0,0.75,0],[1,0.25,0],[1,0.5,0],[1,0.75,0]];outlineConnect=0;fontColor=#232F3E;gradientColor=#4D72F3;gradientDirection=north;fillColor=#3334B9;strokeColor=#ffffff;dashed=0;verticalLabelPosition=bottom;verticalAlign=top;align=center;html=1;fontSize=12;fontStyle=0;aspect=fixed;shape=mxgraph.aws4.resourceIcon;resIcon=mxgraph.aws4.rds;" vertex="1" parent="sQ7NP-9YRCdX116FE9q4-15">
          <mxGeometry x="86" y="86" width="58" height="58" as="geometry" />
        </mxCell>
        <mxCell id="sQ7NP-9YRCdX116FE9q4-16" value="Internet&#xa;gateway" style="sketch=0;outlineConnect=0;fontColor=#232F3E;gradientColor=none;strokeColor=#232F3E;fillColor=#ffffff;dashed=0;verticalLabelPosition=bottom;verticalAlign=top;align=center;html=1;fontSize=12;fontStyle=0;aspect=fixed;shape=mxgraph.aws4.resourceIcon;resIcon=mxgraph.aws4.internet_gateway;" vertex="1" parent="sQ7NP-9YRCdX116FE9q4-3">
          <mxGeometry x="330" y="-30" width="60" height="60" as="geometry" />
        </mxCell>
        <mxCell id="sQ7NP-9YRCdX116FE9q4-24" value="App subnet" style="points=[[0,0],[0.25,0],[0.5,0],[0.75,0],[1,0],[1,0.25],[1,0.5],[1,0.75],[1,1],[0.75,1],[0.5,1],[0.25,1],[0,1],[0,0.75],[0,0.5],[0,0.25]];outlineConnect=0;gradientColor=none;html=1;whiteSpace=wrap;fontSize=12;fontStyle=0;container=1;pointerEvents=0;collapsible=0;recursiveResize=0;shape=mxgraph.aws4.group;grIcon=mxgraph.aws4.group_security_group;grStroke=0;strokeColor=#147EBA;fillColor=#E6F2F8;verticalAlign=top;align=left;spacingLeft=30;fontColor=#147EBA;dashed=0;" vertex="1" parent="sQ7NP-9YRCdX116FE9q4-3">
          <mxGeometry x="80" y="260" width="230" height="220" as="geometry" />
        </mxCell>
        <mxCell id="sQ7NP-9YRCdX116FE9q4-28" value="" style="sketch=0;points=[[0,0,0],[0.25,0,0],[0.5,0,0],[0.75,0,0],[1,0,0],[0,1,0],[0.25,1,0],[0.5,1,0],[0.75,1,0],[1,1,0],[0,0.25,0],[0,0.5,0],[0,0.75,0],[1,0.25,0],[1,0.5,0],[1,0.75,0]];outlineConnect=0;fontColor=#232F3E;gradientColor=#F78E04;gradientDirection=north;fillColor=#D05C17;strokeColor=#ffffff;dashed=0;verticalLabelPosition=bottom;verticalAlign=top;align=center;html=1;fontSize=12;fontStyle=0;aspect=fixed;shape=mxgraph.aws4.resourceIcon;resIcon=mxgraph.aws4.ec2;" vertex="1" parent="sQ7NP-9YRCdX116FE9q4-24">
          <mxGeometry x="86" y="80" width="58" height="58" as="geometry" />
        </mxCell>
        <mxCell id="sQ7NP-9YRCdX116FE9q4-25" value="Private subnet" style="points=[[0,0],[0.25,0],[0.5,0],[0.75,0],[1,0],[1,0.25],[1,0.5],[1,0.75],[1,1],[0.75,1],[0.5,1],[0.25,1],[0,1],[0,0.75],[0,0.5],[0,0.25]];outlineConnect=0;gradientColor=none;html=1;whiteSpace=wrap;fontSize=12;fontStyle=0;container=1;pointerEvents=0;collapsible=0;recursiveResize=0;shape=mxgraph.aws4.group;grIcon=mxgraph.aws4.group_security_group;grStroke=0;strokeColor=#147EBA;fillColor=#E6F2F8;verticalAlign=top;align=left;spacingLeft=30;fontColor=#147EBA;dashed=0;" vertex="1" parent="sQ7NP-9YRCdX116FE9q4-3">
          <mxGeometry x="80" y="494" width="230" height="230" as="geometry" />
        </mxCell>
        <mxCell id="sQ7NP-9YRCdX116FE9q4-27" value="" style="sketch=0;outlineConnect=0;fontColor=#232F3E;gradientColor=none;fillColor=#D45B07;strokeColor=none;dashed=0;verticalLabelPosition=bottom;verticalAlign=top;align=center;html=1;fontSize=12;fontStyle=0;aspect=fixed;pointerEvents=1;shape=mxgraph.aws4.auto_scaling2;" vertex="1" parent="sQ7NP-9YRCdX116FE9q4-3">
          <mxGeometry x="336" y="302" width="48" height="48" as="geometry" />
        </mxCell>
        <mxCell id="sQ7NP-9YRCdX116FE9q4-30" value="" style="outlineConnect=0;dashed=0;verticalLabelPosition=bottom;verticalAlign=top;align=center;html=1;shape=mxgraph.aws3.application_load_balancer;fillColor=#F58534;gradientColor=none;" vertex="1" parent="sQ7NP-9YRCdX116FE9q4-3">
          <mxGeometry x="333.16" y="112.5" width="53.67" height="56" as="geometry" />
        </mxCell>
        <mxCell id="sQ7NP-9YRCdX116FE9q4-33" value="" style="sketch=0;points=[[0,0,0],[0.25,0,0],[0.5,0,0],[0.75,0,0],[1,0,0],[0,1,0],[0.25,1,0],[0.5,1,0],[0.75,1,0],[1,1,0],[0,0.25,0],[0,0.5,0],[0,0.75,0],[1,0.25,0],[1,0.5,0],[1,0.75,0]];outlineConnect=0;fontColor=#232F3E;gradientColor=#4D72F3;gradientDirection=north;fillColor=#3334B9;strokeColor=#ffffff;dashed=0;verticalLabelPosition=bottom;verticalAlign=top;align=center;html=1;fontSize=12;fontStyle=0;aspect=fixed;shape=mxgraph.aws4.resourceIcon;resIcon=mxgraph.aws4.rds;" vertex="1" parent="sQ7NP-9YRCdX116FE9q4-3">
          <mxGeometry x="166" y="580" width="58" height="58" as="geometry" />
        </mxCell>
        <mxCell id="sQ7NP-9YRCdX116FE9q4-35" value="Public subnet" style="points=[[0,0],[0.25,0],[0.5,0],[0.75,0],[1,0],[1,0.25],[1,0.5],[1,0.75],[1,1],[0.75,1],[0.5,1],[0.25,1],[0,1],[0,0.75],[0,0.5],[0,0.25]];outlineConnect=0;gradientColor=none;html=1;whiteSpace=wrap;fontSize=12;fontStyle=0;container=1;pointerEvents=0;collapsible=0;recursiveResize=0;shape=mxgraph.aws4.group;grIcon=mxgraph.aws4.group_security_group;grStroke=0;strokeColor=#248814;fillColor=#E9F3E6;verticalAlign=top;align=left;spacingLeft=30;fontColor=#248814;dashed=0;" vertex="1" parent="sQ7NP-9YRCdX116FE9q4-3">
          <mxGeometry x="80" y="30" width="230" height="220" as="geometry" />
        </mxCell>
        <mxCell id="sQ7NP-9YRCdX116FE9q4-36" value="NAT gateway" style="sketch=0;outlineConnect=0;fontColor=#232F3E;gradientColor=none;strokeColor=#232F3E;fillColor=#ffffff;dashed=0;verticalLabelPosition=bottom;verticalAlign=top;align=center;html=1;fontSize=12;fontStyle=0;aspect=fixed;shape=mxgraph.aws4.resourceIcon;resIcon=mxgraph.aws4.nat_gateway;" vertex="1" parent="sQ7NP-9YRCdX116FE9q4-35">
          <mxGeometry x="86" y="82.5" width="55" height="55" as="geometry" />
        </mxCell>
        <mxCell id="sQ7NP-9YRCdX116FE9q4-55" value="" style="edgeStyle=orthogonalEdgeStyle;html=1;endArrow=block;elbow=vertical;startArrow=none;endFill=1;strokeColor=#545B64;rounded=0;entryX=0.13;entryY=0.744;entryDx=0;entryDy=0;entryPerimeter=0;" edge="1" parent="sQ7NP-9YRCdX116FE9q4-35" target="sQ7NP-9YRCdX116FE9q4-16">
          <mxGeometry width="100" relative="1" as="geometry">
            <mxPoint x="120" y="80" as="sourcePoint" />
            <mxPoint x="220" y="80" as="targetPoint" />
            <Array as="points">
              <mxPoint x="120" y="-15" />
            </Array>
          </mxGeometry>
        </mxCell>
        <mxCell id="sQ7NP-9YRCdX116FE9q4-38" value="Public subnet" style="points=[[0,0],[0.25,0],[0.5,0],[0.75,0],[1,0],[1,0.25],[1,0.5],[1,0.75],[1,1],[0.75,1],[0.5,1],[0.25,1],[0,1],[0,0.75],[0,0.5],[0,0.25]];outlineConnect=0;gradientColor=none;html=1;whiteSpace=wrap;fontSize=12;fontStyle=0;container=1;pointerEvents=0;collapsible=0;recursiveResize=0;shape=mxgraph.aws4.group;grIcon=mxgraph.aws4.group_security_group;grStroke=0;strokeColor=#248814;fillColor=#E9F3E6;verticalAlign=top;align=left;spacingLeft=30;fontColor=#248814;dashed=0;" vertex="1" parent="sQ7NP-9YRCdX116FE9q4-3">
          <mxGeometry x="410" y="30" width="230" height="220" as="geometry" />
        </mxCell>
        <mxCell id="sQ7NP-9YRCdX116FE9q4-41" value="" style="edgeStyle=orthogonalEdgeStyle;html=1;endArrow=block;elbow=vertical;startArrow=block;startFill=1;endFill=1;strokeColor=#545B64;rounded=0;exitX=0;exitY=0.5;exitDx=0;exitDy=0;exitPerimeter=0;entryX=0;entryY=0.5;entryDx=0;entryDy=0;entryPerimeter=0;" edge="1" parent="sQ7NP-9YRCdX116FE9q4-3" source="sQ7NP-9YRCdX116FE9q4-33" target="sQ7NP-9YRCdX116FE9q4-28">
          <mxGeometry width="100" relative="1" as="geometry">
            <mxPoint x="90" y="594" as="sourcePoint" />
            <mxPoint x="90" y="360" as="targetPoint" />
            <Array as="points">
              <mxPoint x="110" y="609" />
              <mxPoint x="110" y="369" />
            </Array>
          </mxGeometry>
        </mxCell>
        <mxCell id="sQ7NP-9YRCdX116FE9q4-42" value="" style="edgeStyle=orthogonalEdgeStyle;html=1;endArrow=none;elbow=vertical;startArrow=block;startFill=1;strokeColor=#545B64;rounded=0;entryX=0.5;entryY=0;entryDx=0;entryDy=0;entryPerimeter=0;" edge="1" parent="sQ7NP-9YRCdX116FE9q4-3" source="sQ7NP-9YRCdX116FE9q4-39" target="sQ7NP-9YRCdX116FE9q4-29">
          <mxGeometry width="100" relative="1" as="geometry">
            <mxPoint x="470" y="220" as="sourcePoint" />
            <mxPoint x="570" y="220" as="targetPoint" />
          </mxGeometry>
        </mxCell>
        <mxCell id="sQ7NP-9YRCdX116FE9q4-39" value="NAT gateway" style="sketch=0;outlineConnect=0;fontColor=#232F3E;gradientColor=none;strokeColor=#232F3E;fillColor=#ffffff;dashed=0;verticalLabelPosition=bottom;verticalAlign=top;align=center;html=1;fontSize=12;fontStyle=0;aspect=fixed;shape=mxgraph.aws4.resourceIcon;resIcon=mxgraph.aws4.nat_gateway;" vertex="1" parent="sQ7NP-9YRCdX116FE9q4-3">
          <mxGeometry x="497.5" y="112.5" width="55" height="55" as="geometry" />
        </mxCell>
        <mxCell id="sQ7NP-9YRCdX116FE9q4-46" value="" style="edgeStyle=orthogonalEdgeStyle;html=1;endArrow=none;elbow=vertical;startArrow=block;startFill=1;strokeColor=#545B64;rounded=0;entryX=0.5;entryY=0;entryDx=0;entryDy=0;entryPerimeter=0;" edge="1" parent="sQ7NP-9YRCdX116FE9q4-3" source="sQ7NP-9YRCdX116FE9q4-36" target="sQ7NP-9YRCdX116FE9q4-28">
          <mxGeometry width="100" relative="1" as="geometry">
            <mxPoint x="280" y="360" as="sourcePoint" />
            <mxPoint x="380" y="360" as="targetPoint" />
            <Array as="points">
              <mxPoint x="195" y="230" />
              <mxPoint x="195" y="230" />
            </Array>
          </mxGeometry>
        </mxCell>
        <mxCell id="sQ7NP-9YRCdX116FE9q4-47" value="" style="edgeStyle=orthogonalEdgeStyle;html=1;endArrow=block;elbow=vertical;startArrow=block;startFill=1;endFill=1;strokeColor=#545B64;rounded=0;" edge="1" parent="sQ7NP-9YRCdX116FE9q4-3">
          <mxGeometry width="100" relative="1" as="geometry">
            <mxPoint x="224" y="380" as="sourcePoint" />
            <mxPoint x="496" y="620" as="targetPoint" />
            <Array as="points">
              <mxPoint x="224" y="380" />
              <mxPoint x="340" y="380" />
              <mxPoint x="340" y="620" />
            </Array>
          </mxGeometry>
        </mxCell>
        <mxCell id="sQ7NP-9YRCdX116FE9q4-49" value="" style="edgeStyle=orthogonalEdgeStyle;html=1;endArrow=block;elbow=vertical;startArrow=block;startFill=1;endFill=1;strokeColor=#545B64;rounded=0;entryX=0.5;entryY=0;entryDx=0;entryDy=0;entryPerimeter=0;" edge="1" parent="sQ7NP-9YRCdX116FE9q4-3" source="sQ7NP-9YRCdX116FE9q4-16" target="sQ7NP-9YRCdX116FE9q4-30">
          <mxGeometry width="100" relative="1" as="geometry">
            <mxPoint x="280" y="160" as="sourcePoint" />
            <mxPoint x="380" y="160" as="targetPoint" />
          </mxGeometry>
        </mxCell>
        <mxCell id="sQ7NP-9YRCdX116FE9q4-51" value="" style="edgeStyle=orthogonalEdgeStyle;html=1;endArrow=block;elbow=vertical;startArrow=block;startFill=1;endFill=1;strokeColor=#545B64;rounded=0;exitX=1;exitY=0.5;exitDx=0;exitDy=0;exitPerimeter=0;" edge="1" parent="sQ7NP-9YRCdX116FE9q4-3">
          <mxGeometry width="100" relative="1" as="geometry">
            <mxPoint x="225.5" y="630" as="sourcePoint" />
            <mxPoint x="497.5" y="380" as="targetPoint" />
            <Array as="points">
              <mxPoint x="232" y="630" />
              <mxPoint x="232" y="629" />
              <mxPoint x="380" y="629" />
              <mxPoint x="380" y="380" />
            </Array>
          </mxGeometry>
        </mxCell>
        <mxCell id="sQ7NP-9YRCdX116FE9q4-53" value="" style="edgeStyle=orthogonalEdgeStyle;html=1;endArrow=block;elbow=vertical;startArrow=block;startFill=1;endFill=1;strokeColor=#545B64;rounded=0;" edge="1" parent="sQ7NP-9YRCdX116FE9q4-3">
          <mxGeometry width="100" relative="1" as="geometry">
            <mxPoint x="552.5000000000002" y="615" as="sourcePoint" />
            <mxPoint x="558.5" y="375" as="targetPoint" />
            <Array as="points">
              <mxPoint x="608.5" y="615" />
              <mxPoint x="608.5" y="375" />
            </Array>
          </mxGeometry>
        </mxCell>
        <mxCell id="sQ7NP-9YRCdX116FE9q4-56" value="" style="edgeStyle=orthogonalEdgeStyle;html=1;endArrow=block;elbow=vertical;startArrow=none;endFill=1;strokeColor=#545B64;rounded=0;" edge="1" parent="sQ7NP-9YRCdX116FE9q4-3" source="sQ7NP-9YRCdX116FE9q4-39">
          <mxGeometry width="100" relative="1" as="geometry">
            <mxPoint x="512.83" y="108.5" as="sourcePoint" />
            <mxPoint x="382.83" y="16" as="targetPoint" />
            <Array as="points">
              <mxPoint x="520" y="16" />
            </Array>
          </mxGeometry>
        </mxCell>
        <mxCell id="sQ7NP-9YRCdX116FE9q4-60" value="" style="edgeStyle=orthogonalEdgeStyle;html=1;endArrow=block;elbow=vertical;startArrow=block;startFill=1;endFill=1;strokeColor=#545B64;rounded=0;exitX=1;exitY=0.5;exitDx=0;exitDy=0;exitPerimeter=0;entryX=0;entryY=0.25;entryDx=0;entryDy=0;entryPerimeter=0;" edge="1" parent="sQ7NP-9YRCdX116FE9q4-3">
          <mxGeometry width="100" relative="1" as="geometry">
            <mxPoint x="386.83000000000015" y="140.5" as="sourcePoint" />
            <mxPoint x="496" y="354.5" as="targetPoint" />
            <Array as="points">
              <mxPoint x="450" y="140" />
              <mxPoint x="450" y="354" />
            </Array>
          </mxGeometry>
        </mxCell>
        <mxCell id="sQ7NP-9YRCdX116FE9q4-61" value="" style="edgeStyle=orthogonalEdgeStyle;html=1;endArrow=block;elbow=vertical;startArrow=block;startFill=1;endFill=1;strokeColor=#545B64;rounded=0;exitX=0;exitY=0.5;exitDx=0;exitDy=0;exitPerimeter=0;entryX=1;entryY=0.25;entryDx=0;entryDy=0;entryPerimeter=0;" edge="1" parent="sQ7NP-9YRCdX116FE9q4-3" source="sQ7NP-9YRCdX116FE9q4-30" target="sQ7NP-9YRCdX116FE9q4-28">
          <mxGeometry width="100" relative="1" as="geometry">
            <mxPoint x="224.0000000000001" y="140.01" as="sourcePoint" />
            <mxPoint x="333.16999999999996" y="354.01" as="targetPoint" />
            <Array as="points">
              <mxPoint x="287" y="140" />
              <mxPoint x="287" y="354" />
            </Array>
          </mxGeometry>
        </mxCell>
        <mxCell id="sQ7NP-9YRCdX116FE9q4-8" style="edgeStyle=orthogonalEdgeStyle;rounded=0;orthogonalLoop=1;jettySize=auto;html=1;exitX=0.5;exitY=1;exitDx=0;exitDy=0;" edge="1" parent="1" source="sQ7NP-9YRCdX116FE9q4-3" target="sQ7NP-9YRCdX116FE9q4-3">
          <mxGeometry relative="1" as="geometry" />
        </mxCell>
        <mxCell id="sQ7NP-9YRCdX116FE9q4-68" value="" style="edgeStyle=orthogonalEdgeStyle;html=1;endArrow=block;elbow=vertical;startArrow=block;startFill=1;endFill=1;strokeColor=#545B64;rounded=0;exitX=0.5;exitY=1;exitDx=0;exitDy=0;exitPerimeter=0;" edge="1" parent="1" source="sQ7NP-9YRCdX116FE9q4-66" target="sQ7NP-9YRCdX116FE9q4-16">
          <mxGeometry width="100" relative="1" as="geometry">
            <mxPoint x="385.5" y="140.57" as="sourcePoint" />
            <mxPoint x="485.5" y="140.93" as="targetPoint" />
          </mxGeometry>
        </mxCell>
      </root>
    </mxGraphModel>
  </diagram>
</mxfile>
